<svg width="15" height="16" viewBox="0 0 15 16" fill="none" xmlns="http://www.w3.org/2000/svg">
<path d="M0.375 8.3928H0.625H0.375ZM0.375 14.0329H0.125H0.375ZM13.5288 15.125V14.875V15.125ZM1.47115 15.125V15.375H1.47115L1.47115 15.125ZM14.625 8.39283H14.375H14.625ZM14.625 14.0329H14.875H14.625ZM14.045 6.91282L13.8614 7.08256L14.045 6.91282ZM9.11227 1.57916L8.92873 1.7489L9.11227 1.57916ZM5.88773 1.57915L6.07127 1.74889L5.88773 1.57915ZM0.95504 6.91279L0.771499 6.74305H0.771499L0.95504 6.91279ZM5.30769 9.66458H5.55769H5.30769ZM5.30769 14.579L5.05769 14.579L5.30769 14.579ZM9.14423 15.125V14.875V15.125ZM5.85577 15.125V15.375V15.125ZM9.69231 9.66459H9.94231H9.69231ZM9.69231 14.579H9.44231H9.69231ZM9.14423 9.11855L9.14423 9.36855L9.14423 9.11855ZM5.85577 9.11854L5.85577 9.36854H5.85577L5.85577 9.11854ZM0.125 8.3928L0.125 14.0329H0.625L0.625 8.3928H0.125ZM13.5288 14.875L1.47115 14.875L1.47115 15.375L13.5288 15.375V14.875ZM14.375 8.39283V14.0329H14.875V8.39283H14.375ZM14.2285 6.74307L9.29581 1.40941L8.92873 1.7489L13.8614 7.08256L14.2285 6.74307ZM5.70419 1.40941L0.771499 6.74305L1.13858 7.08253L6.07127 1.74889L5.70419 1.40941ZM9.29581 1.40941C8.32856 0.363532 6.67145 0.363528 5.70419 1.40941L6.07127 1.74889C6.8406 0.917033 8.1594 0.917036 8.92873 1.7489L9.29581 1.40941ZM14.875 8.39283C14.875 7.78139 14.6441 7.19248 14.2285 6.74307L13.8614 7.08256C14.1918 7.43975 14.375 7.90749 14.375 8.39283H14.875ZM0.625 8.3928C0.625 7.90746 0.808245 7.43972 1.13858 7.08253L0.771499 6.74305C0.355872 7.19246 0.125 7.78136 0.125 8.3928H0.625ZM0.125 14.0329C0.125 14.775 0.728571 15.375 1.47115 15.375L1.47115 14.875C1.00296 14.875 0.625 14.4971 0.625 14.0329H0.125ZM13.5288 15.375C14.2714 15.375 14.875 14.775 14.875 14.0329H14.375C14.375 14.4971 13.997 14.875 13.5288 14.875V15.375ZM5.05769 9.66458L5.05769 14.579L5.55769 14.579L5.55769 9.66458H5.05769ZM9.14423 14.875H5.85577V15.375H9.14423V14.875ZM9.44231 9.66459L9.44231 14.579H9.94231L9.94231 9.66459H9.44231ZM9.14423 8.86855L5.85577 8.86854L5.85577 9.36854L9.14423 9.36855L9.14423 8.86855ZM9.94231 9.66459C9.94231 9.22407 9.58412 8.86855 9.14423 8.86855L9.14423 9.36855C9.30973 9.36855 9.44231 9.50197 9.44231 9.66459H9.94231ZM5.55769 9.66458C5.55769 9.50196 5.69027 9.36854 5.85577 9.36854L5.85577 8.86854C5.41588 8.86854 5.05769 9.22406 5.05769 9.66458H5.55769ZM5.05769 14.579C5.05769 15.0195 5.41588 15.375 5.85577 15.375V14.875C5.69027 14.875 5.55769 14.7416 5.55769 14.579L5.05769 14.579ZM9.14423 15.375C9.58412 15.375 9.94231 15.0195 9.94231 14.579H9.44231C9.44231 14.7416 9.30973 14.875 9.14423 14.875V15.375Z" fill="#AE38F1"/>
</svg>
