<svg width="15" height="16" viewBox="0 0 15 16" fill="none" xmlns="http://www.w3.org/2000/svg">
<path d="M10.7877 4.16346C10.7877 5.97963 9.31545 7.45192 7.49929 7.45192C5.68312 7.45192 4.21082 5.97963 4.21082 4.16346C4.21082 2.34729 5.68312 0.875 7.49929 0.875C9.31545 0.875 10.7877 2.34729 10.7877 4.16346Z" stroke="#686C87" stroke-width="0.5"/>
<path d="M7.49929 15.125C10.7568 15.125 12.6335 14.2848 13.5041 13.7439C13.9115 13.4909 14.1123 13.0249 14.0709 12.5422C14.0143 11.883 13.784 11.2246 13.5494 10.7023C13.2415 10.0166 12.5287 9.64423 11.777 9.64423H3.22156C2.46988 9.64423 1.75708 10.0166 1.44915 10.7023C1.21462 11.2245 0.984283 11.883 0.927701 12.5422C0.88627 13.0249 1.08706 13.4909 1.49444 13.7439C2.36504 14.2848 4.24181 15.125 7.49929 15.125Z" stroke="#686C87" stroke-width="0.5"/>
</svg>
